<?xml version="1.0" encoding="UTF-8"?>
<svg xmlns="http://www.w3.org/2000/svg" viewBox="0 0 1280 320" width="100%" preserveAspectRatio="xMidYMid meet">
<style>
  .label { font-family: "PingFang SC", "Microsoft YaHei", "Hiragino Sans GB", "Noto Sans CJK SC", "Noto Sans SC", sans-serif; font-weight: 700; }
  .top  { font-size: 18px; }
  .bot  { font-size: 13px; opacity: 0.85; }
</style>
<defs>
<marker id="arrow" viewBox="0 0 10 10" refX="9" refY="5" markerWidth="8" markerHeight="8" orient="auto-start-reverse"><path d="M 0 0 L 10 5 L 0 10 z" fill="#aaa"/></marker>
</defs>
<line x1="300" y1="135.0" x2="374" y2="135.0" stroke="#aaa" stroke-width="2.5" marker-end="url(#arrow)"/>
<line x1="600" y1="135.0" x2="674" y2="135.0" stroke="#aaa" stroke-width="2.5" marker-end="url(#arrow)"/>
<line x1="900" y1="135.0" x2="974" y2="135.0" stroke="#aaa" stroke-width="2.5" marker-end="url(#arrow)"/>
<line x1="790.0" y1="170" x2="790.0" y2="224" stroke="#aaa" stroke-width="2.5" stroke-dasharray="6,4" marker-end="url(#arrow)"/>
<line x1="900" y1="265.0" x2="974" y2="265.0" stroke="#aaa" stroke-width="2.5" stroke-dasharray="6,4" marker-end="url(#arrow)"/>
<rect x="80" y="100" width="220" height="70" rx="10" ry="10" fill="#bbbbbb" opacity="0.95"/>
<text class="label top" x="190.0" y="128" fill="#ffffff" text-anchor="middle">🪟 Windows</text>
<text class="label bot" x="190.0" y="150" fill="#ffffff" text-anchor="middle">系统音频</text>
<rect x="380" y="100" width="220" height="70" rx="10" ry="10" fill="#FF4080" opacity="0.95"/>
<text class="label top" x="490.0" y="128" fill="#ffffff" text-anchor="middle">⚙️ WDM</text>
<text class="label bot" x="490.0" y="150" fill="#ffffff" text-anchor="middle">内核驱动</text>
<rect x="680" y="100" width="220" height="70" rx="10" ry="10" fill="#FF4080" opacity="0.95"/>
<text class="label top" x="790.0" y="128" fill="#ffffff" text-anchor="middle">🔌 VST3</text>
<text class="label bot" x="790.0" y="150" fill="#ffffff" text-anchor="middle">桥接插件</text>
<rect x="980" y="100" width="220" height="70" rx="10" ry="10" fill="#7AB8FF" opacity="0.95"/>
<text class="label top" x="1090.0" y="128" fill="#ffffff" text-anchor="middle">🎚 DAW</text>
<text class="label bot" x="1090.0" y="150" fill="#ffffff" text-anchor="middle">数字音频工作站</text>
<rect x="680" y="230" width="220" height="70" rx="10" ry="10" fill="#C26FFF" opacity="0.95"/>
<text class="label top" x="790.0" y="258" fill="#ffffff" text-anchor="middle">🌐 Network Ultra</text>
<text class="label bot" x="790.0" y="280" fill="#ffffff" text-anchor="middle">跨网协作中继</text>
<rect x="980" y="230" width="220" height="70" rx="10" ry="10" fill="#bbbbbb" opacity="0.95"/>
<text class="label top" x="1090.0" y="258" fill="#ffffff" text-anchor="middle">👥 远端 DAW</text>
<text class="label bot" x="1090.0" y="280" fill="#ffffff" text-anchor="middle">全世界</text>
</svg>
