<?xml version="1.0" encoding="UTF-8"?>
<svg xmlns="http://www.w3.org/2000/svg" viewBox="0 0 1280 320" width="100%" preserveAspectRatio="xMidYMid meet">
<style>
  .label { font-family: "PingFang SC", "Microsoft YaHei", "Hiragino Sans GB", "Noto Sans CJK SC", "Noto Sans SC", sans-serif; font-weight: 700; }
  .top  { font-size: 18px; }
  .bot  { font-size: 13px; opacity: 0.85; }
</style>
<defs>
<marker id="arrow" viewBox="0 0 10 10" refX="9" refY="5" markerWidth="8" markerHeight="8" orient="auto-start-reverse"><path d="M 0 0 L 10 5 L 0 10 z" fill="#666"/></marker>
</defs>
<line x1="290" y1="135.0" x2="334" y2="135.0" stroke="#666" stroke-width="2.5" marker-end="url(#arrow)"/>
<line x1="620" y1="135.0" x2="664" y2="135.0" stroke="#666" stroke-width="2.5" marker-end="url(#arrow)"/>
<line x1="950" y1="135.0" x2="994" y2="135.0" stroke="#666" stroke-width="2.5" marker-end="url(#arrow)"/>
<line x1="810.0" y1="170" x2="810.0" y2="224" stroke="#666" stroke-width="2.5" stroke-dasharray="6,4" marker-end="url(#arrow)"/>
<line x1="950" y1="265.0" x2="994" y2="265.0" stroke="#666" stroke-width="2.5" stroke-dasharray="6,4" marker-end="url(#arrow)"/>
<rect x="10" y="100" width="280" height="70" rx="10" ry="10" fill="#555555" opacity="0.95"/>
<text class="label top" x="150.0" y="128" fill="#ffffff" text-anchor="middle">🪟 Windows</text>
<text class="label bot" x="150.0" y="150" fill="#ffffff" text-anchor="middle">系统音频</text>
<rect x="340" y="100" width="280" height="70" rx="10" ry="10" fill="#E91E63" opacity="0.95"/>
<text class="label top" x="480.0" y="128" fill="#ffffff" text-anchor="middle">⚙️ WDM</text>
<text class="label bot" x="480.0" y="150" fill="#ffffff" text-anchor="middle">内核驱动</text>
<rect x="670" y="100" width="280" height="70" rx="10" ry="10" fill="#E91E63" opacity="0.95"/>
<text class="label top" x="810.0" y="128" fill="#ffffff" text-anchor="middle">🔌 VST3</text>
<text class="label bot" x="810.0" y="150" fill="#ffffff" text-anchor="middle">桥接插件</text>
<rect x="1000" y="100" width="280" height="70" rx="10" ry="10" fill="#00599C" opacity="0.95"/>
<text class="label top" x="1140.0" y="128" fill="#ffffff" text-anchor="middle">🎚 DAW</text>
<text class="label bot" x="1140.0" y="150" fill="#ffffff" text-anchor="middle">数字音频工作站</text>
<rect x="670" y="230" width="280" height="70" rx="10" ry="10" fill="#9C27B0" opacity="0.95"/>
<text class="label top" x="810.0" y="258" fill="#ffffff" text-anchor="middle">🌐 Network Ultra</text>
<text class="label bot" x="810.0" y="280" fill="#ffffff" text-anchor="middle">跨网协作中继</text>
<rect x="1000" y="230" width="280" height="70" rx="10" ry="10" fill="#555555" opacity="0.95"/>
<text class="label top" x="1140.0" y="258" fill="#ffffff" text-anchor="middle">👥 远端 DAW</text>
<text class="label bot" x="1140.0" y="280" fill="#ffffff" text-anchor="middle">全世界</text>
</svg>
